<?xml version="1.0" encoding="utf-8"?>
<svg version="1.1" id="Layer_1" xmlns="http://www.w3.org/2000/svg" xmlns:xlink="http://www.w3.org/1999/xlink" x="0px" y="0px"
	 viewBox="0 0 400 400" style="enable-background:new 0 0 400 400;" xml:space="preserve">
<style type="text/css">
	.st0{fill:#07114E;}
	.st1{fill:#BD9A45;}
	.st2{fill:#FFFFFF;}
</style>
<g>
	<g>
		<g>
			<path class="st0" d="M203.28,234.17h103.48v-81.88c-11.64,3.69-27.17,7.07-45.1,7.07c-20.04,0-39.64-4.16-58.38-12.37V234.17z"/>
			<path class="st1" d="M196.72,234.17v-87.18c-18.74,8.21-38.35,12.37-58.38,12.37c-17.93,0-33.46-3.37-45.1-7.07v81.87H196.72z"/>
			<path class="st0" d="M203.28,240.73h-6.56H93.24V268c0,28.3,17.66,52.12,52.49,70.82c22.68,12.17,45.81,18.26,54.28,20.23
				c8.46-1.97,31.59-8.05,54.27-20.23c34.83-18.69,52.49-42.52,52.49-70.82v-27.28H203.28z"/>
		</g>
		<g>
			<path class="st1" d="M200,138.25c19.69,9.66,40.41,14.55,61.66,14.55c21.64,0,39.66-5.09,51.66-9.78V268
				c0,30.9-18.82,56.67-55.94,76.6c-24.89,13.36-50.25,19.59-57.38,21.17c-7.14-1.59-32.49-7.82-57.38-21.17
				C105.5,324.67,86.68,298.9,86.68,268V143.03c12,4.68,30.02,9.77,51.66,9.77C159.59,152.8,180.31,147.91,200,138.25
				 M323.81,126.45c0,0-25.47,15.86-62.15,15.86c-18.34,0-39.49-3.96-61.66-15.86c-22.17,11.89-43.32,15.86-61.66,15.86
				c-36.69,0-62.15-15.86-62.15-15.86s0,56.68,0,141.55C76.19,352.87,200,376.5,200,376.5S323.81,352.87,323.81,268
				C323.81,183.14,323.81,126.45,323.81,126.45L323.81,126.45z"/>
		</g>
		<g>
			<g>
				<path class="st2" d="M149.96,279.49h28.69v3.36c0,5.13-1.19,9.72-3.58,13.76c-2.42,4.08-5.67,7.23-9.83,9.43
					c-4.15,2.2-8.81,3.32-13.94,3.32s-9.75-1.12-13.91-3.32s-7.41-5.35-9.83-9.43c-2.42-4.05-3.61-8.63-3.61-13.76
					s1.19-9.72,3.61-13.8c2.42-4.05,5.67-7.19,9.83-9.39c4.16-2.2,8.78-3.32,13.91-3.32c5.38,0,10.19,1.23,14.45,3.65
					c4.26,2.46,7.52,5.82,9.72,10.12l-11.45,5.38c-2.46-4.52-7.23-7.26-12.72-7.26c-4.08,0-7.55,1.37-10.4,4.12
					c-2.85,2.78-4.26,6.29-4.26,10.51c0,4.23,1.41,7.73,4.26,10.51c2.85,2.78,6.32,4.15,10.4,4.15c2.93,0,5.6-0.9,8.06-2.71
					c2.46-1.81,4.26-4.05,5.42-6.68h-14.81V279.49z"/>
				<path class="st2" d="M226.34,286.25c1.77,2.31,2.64,5.09,2.64,8.35c0,4.19-1.48,7.59-4.48,10.22c-3,2.64-6.65,3.94-11.02,3.94
					h-28v-51.81h26.16c4.41,0,8.09,1.23,11.06,3.68c2.96,2.49,4.44,5.78,4.44,9.94c0,6.07-2.89,10.01-6.94,11.31
					C222.51,282.49,224.57,283.94,226.34,286.25z M198.41,266.96v11.06h10.51c1.48,0,2.71-0.54,3.72-1.59
					c1.01-1.05,1.52-2.38,1.52-3.97c0-1.55-0.51-2.89-1.52-3.94c-1.01-1.05-2.24-1.55-3.72-1.55H198.41z M210.77,298.79
					c1.48,0,2.71-0.54,3.76-1.59c1.01-1.05,1.52-2.38,1.52-3.97c0-1.55-0.51-2.89-1.52-3.94c-1.01-1.05-2.28-1.59-3.76-1.59h-12.36
					v11.09H210.77z"/>
				<path class="st2" d="M261.53,271.91c-0.69-3.58-3.11-5.6-6.68-5.6c-4.23,0-6.65,1.88-6.65,5.17c0.11,1.92,1.12,2.96,3.14,3.9
					c1.41,0.69,2.28,0.94,4.05,1.41c2.09,0.61,3.87,1.19,5.27,1.66c1.41,0.47,2.93,1.05,4.51,1.66c3.14,1.26,4.91,2.31,6.86,3.9
					c2.82,2.38,3.9,5.2,4.01,9.43c-0.04,5.17-1.88,9.14-5.6,11.85c-3.72,2.71-8.74,4.08-15.14,4.08c-6.21,0-11.2-1.34-14.99-4.05
					c-3.79-2.71-5.82-6.61-6.11-11.71l12.93-0.9c0.58,4.05,3.68,6.29,8.13,6.29c4.59,0,7.7-1.84,7.73-5.27
					c-0.11-2.38-1.73-3.9-4.66-5.24c-2.06-0.98-3.54-1.37-6.11-2.2c-1.41-0.43-2.6-0.8-3.5-1.12c-0.94-0.29-1.99-0.65-3.11-1.05
					c-1.16-0.4-2.06-0.8-2.75-1.16c-1.37-0.69-3.29-1.73-4.23-2.75c-0.94-0.97-2.1-2.31-2.57-3.79c-0.47-1.48-0.83-3.29-0.83-5.49
					c0-6.39,3.79-11.02,9.57-13.08c2.89-1.01,6.21-1.52,10.01-1.52c5.6,0,10.15,1.23,13.73,3.72c3.58,2.49,5.53,6.14,5.89,10.91
					L261.53,271.91z"/>
			</g>
			<path class="st2" d="M226.15,192.5c0,0,2.27-7.19,8.52-7.19s6.15,4.92,11.17,4.92c5.02,0,11.45-11.55,16.37-17.51
				c4.92-5.96,11.36-8.99,11.36-8.99s1.39,11.1-12.21,18.55c0,0,8.05-1.61,13.35-9.94c0,0,2.5,9.52-11.45,12.97
				c0,0,8.33,1.04,12.78-6.53c0,0,0.66,11.64-12.21,10.7c0,0,6.45,3.6,12.22-2.56c0,0,0.21,11.71-12.4,13.91
				c-8.14,1.42-6.72,6.44,0.57,6.44c8.71,0,16.09-1.61,16.09-1.61s-0.76,7.29-14.1,5.77c0,0,3.82,3.34,12.02,1.14
				c0,0-2.84,6.37-13.44,1.89c0,0,2.4,3.79,11.04,3.66c0,0-3.79,7.26-16.47,8.39c0,0,2.19-8.98-7.66-11.63
				c-10.58-2.84-14.98-6.11-16.07-14.31C234.38,191.26,230.64,190.7,226.15,192.5z"/>
			<g>
				<path class="st2" d="M105.28,208.54c0.58,0.13,1.12,0.25,1.66,0.36c5.34,1.09,10.18,0.95,14.77-0.43l0.67-0.2
					c3.79-1.14,7.72-2.33,11.78-2.56c2.91-0.17,6.23-0.16,9.18,1.95c0.09-7.52,0.18-17.65,0.25-25.17c0-0.24-0.05-0.47-0.13-0.58
					c-2.15-2.89-4.33-4.13-7.09-4.08c-3.21,0.07-6.28,1.09-8.9,2.04c-3.7,1.34-7.17,1.63-10.6,0.87c-0.48-0.1-0.64,0-0.9,0.55
					c-0.43,0.95-0.86,2.02-1.29,3.14l-9.87,24L105.28,208.54z"/>
				<path class="st2" d="M186.64,217.04c-0.17-1.79-0.08-3.56,0-5.28c0.01-0.13,0-0.25-0.01-0.39l-0.12,0.02
					c-0.3,0.05-0.59,0.1-0.87,0.16c-7.09,1.46-13.51,1.26-19.63-0.59c-3.62-1.1-7.06-1.76-10.49-2.01c-3.83-0.28-6.69,1.35-8.5,4.83
					c-0.22,0.42-0.43,0.89-0.64,1.44c-0.23,0.6-0.75,0.97-1.38,0.96c-0.63-0.01-1.19-0.41-1.42-1.03l0-0.01l0.31-0.1l-0.32,0.09
					c-1.42-3.87-4.76-6.37-8.34-6.2c-3.44,0.14-6.55,0.65-9.48,1.55c-7.02,2.16-13.49,2.61-19.76,1.38
					c-0.67-0.13-1.34-0.24-2.04-0.36l-0.66-0.11v5.68c0,0.54,0.4,1,0.9,1.03c5.32,0.26,10.65-0.61,15.8-1.45l2.97-0.48
					c2.86-0.47,5.79-0.95,8.75-0.95c0.77,0,1.55,0.03,2.33,0.11c2.7,0.26,4.69,1.13,6.26,2.74c0.41,0.42,1.22,0.89,1.78,1.03
					c1.9,0.49,3.82,0.49,5.72,0.01c0.52-0.13,1.02-0.49,1.52-0.84c0.14-0.1,0.27-0.19,0.41-0.29c0.26-0.18,0.5-0.38,0.75-0.58
					c0.33-0.27,0.67-0.56,1.05-0.78c2.05-1.19,4.47-1.64,7.4-1.34c3.84,0.38,7.97,0.92,12.61,1.66c5.31,0.84,9.78,1.37,14.33,1.19
					c0.37-0.01,0.58-0.07,0.67-0.17C186.65,217.8,186.69,217.51,186.64,217.04z"/>
				<path class="st2" d="M153.83,205.64c0.67,0,1.32,0.03,1.96,0.07c4.07,0.24,7.99,1.42,11.78,2.56l0.67,0.2
					c4.59,1.38,9.42,1.52,14.77,0.43c0.54-0.11,1.09-0.23,1.67-0.37l0.47-0.1l-10.01-24.36l0,0.01c-0.39-0.99-0.77-1.94-1.15-2.79
					c-0.25-0.55-0.41-0.66-0.9-0.55c-3.43,0.76-6.9,0.47-10.6-0.87c-2.62-0.95-5.69-1.97-8.9-2.04c-2.76-0.05-4.94,1.19-7.09,4.08
					c-0.08,0.11-0.13,0.34-0.13,0.58c0.07,7.52,0.16,17.66,0.24,25.17C148.91,206.01,151.45,205.64,153.83,205.64z"/>
			</g>
		</g>
	</g>
	<path class="st1" d="M226.28,59.81c-1.76-2.96-3.51-5.78-5.23-8.49c3.48,24.84-12.35,39.17-12.35,39.17
		c17.4-42.19-12.26-66.99-12.26-66.99s0.6,16.27-20.3,40.86c-15.94,18.76-15.39,33.4,0.8,50.49c16.2,17.1,23.09,23.39,23.09,23.39
		s6.9-6.3,23.09-23.39C239.32,97.76,238.86,80.97,226.28,59.81z M220.93,103.35h-16v28.31h-9.84v-28.31h-16v-9.84h16v-16h9.84v16h16
		V103.35z"/>
</g>
</svg>
